<svg width="486" height="486" viewBox="0 0 486 486" fill="none"
  xmlns="http://www.w3.org/2000/svg">
  <path d="M486 243C486 377.205 377.205 486 243 486C108.795 486 0 377.205 0 243C0 108.795 108.795 0 243 0C377.205 0 486 108.795 486 243Z" fill="url(#paint0_linear_4_18)" />
  <path fill-rule="evenodd" clip-rule="evenodd" d="M346 240C346 236.134 349.134 233 353 233H433C436.866 233 440 236.134 440 240C440 243.866 436.866 247 433 247H353C349.134 247 346 243.866 346 240Z" fill="white"/>
  <path fill-rule="evenodd" clip-rule="evenodd" d="M47 240C47 236.134 50.134 233 54 233H134C137.866 233 141 236.134 141 240C141 243.866 137.866 247 134 247H54C50.134 247 47 243.866 47 240Z" fill="white"/>
  <path fill-rule="evenodd" clip-rule="evenodd" d="M182.347 122.603C164.317 125.082 148.095 140.771 142.91 160.745C138.402 178.113 141.684 196.36 154.781 226.755C160.156 239.231 168.29 262.169 170.506 271.098C171.605 275.532 173.936 286.417 175.685 295.285C181.317 323.857 187.349 345.298 193.05 357.013C197.877 366.932 198.833 365.669 198.767 349.454C198.733 341.057 199.344 331.951 200.317 326.344C206.394 291.338 228.71 268.675 250.786 275.092C266.85 279.762 279.068 294.879 285.48 318.017C287.519 325.373 290.219 354.103 289.136 356.924C288.414 358.808 289.482 363.311 290.651 363.311C291.786 363.311 295.661 354.777 299.624 343.55C303.496 332.582 307.359 317.157 312.216 293.27C317.335 268.088 321.476 254.523 332.057 228.267C343.15 200.741 346 190.291 346 177.137C346 165.663 344.104 157.68 339.123 148.179C327.605 126.209 305.618 117.461 279.486 124.45C276.991 125.117 270.189 127.869 264.369 130.565C245.402 139.352 241.301 139.314 221.264 130.164C205.126 122.795 195.107 120.848 182.347 122.603Z" fill="url(#paint1_linear_4_18)" stroke="white" stroke-width="20" stroke-linecap="round"/>
  <path fill-rule="evenodd" clip-rule="evenodd" d="M243 40C246.866 40 250 43.134 250 47L250 83C250 86.866 246.866 90 243 90C239.134 90 236 86.866 236 83L236 47C236 43.134 239.134 40 243 40Z" fill="white"/>
  <path fill-rule="evenodd" clip-rule="evenodd" d="M243 388C246.866 388 250 391.134 250 395L250 419C250 422.866 246.866 426 243 426C239.134 426 236 422.866 236 419L236 395C236 391.134 239.134 388 243 388Z" fill="white"/>
  <defs>
    <linearGradient id="paint0_linear_4_18" x1="243" y1="0" x2="243" y2="486" gradientUnits="userSpaceOnUse">
      <stop offset="0.485" stop-color="#162D3F"/>
      <stop offset="1" stop-color="#0D1D28"/>
    </linearGradient>
    <linearGradient id="paint1_linear_4_18" x1="243.5" y1="122" x2="243.5" y2="363.315" gradientUnits="userSpaceOnUse">
      <stop offset="0.44" stop-color="#15C4BF"/>
      <stop offset="1" stop-color="#0F9995"/>
    </linearGradient>
  </defs>
</svg>
