<svg width="486" height="486" viewBox="0 0 486 486" fill="none"
  xmlns="http://www.w3.org/2000/svg">
  <path d="M486 243C486 377.205 377.205 486 243 486C108.795 486 0 377.205 0 243C0 108.795 108.795 0 243 0C377.205 0 486 108.795 486 243Z" fill="url(#paint0_linear_12_20)"/>
  <path fill-rule="evenodd" clip-rule="evenodd" d="M182.347 122.603C164.317 125.082 148.095 140.771 142.91 160.745C138.402 178.113 141.684 196.36 154.781 226.755C160.156 239.231 168.29 262.169 170.506 271.098C171.605 275.532 173.936 286.417 175.685 295.285C181.317 323.857 187.349 345.298 193.05 357.013C197.877 366.932 198.833 365.669 198.767 349.454C198.733 341.057 199.344 331.951 200.317 326.344C206.394 291.338 228.71 268.675 250.786 275.092C266.85 279.762 279.068 294.879 285.48 318.017C287.519 325.373 290.219 354.103 289.136 356.924C288.414 358.808 289.482 363.311 290.651 363.311C291.786 363.311 295.661 354.777 299.624 343.55C303.496 332.582 307.359 317.157 312.216 293.27C317.335 268.088 321.476 254.523 332.057 228.267C343.15 200.741 346 190.291 346 177.137C346 165.663 344.104 157.68 339.123 148.179C327.605 126.209 305.618 117.461 279.486 124.45C276.991 125.117 270.189 127.869 264.369 130.565C245.402 139.352 241.301 139.314 221.264 130.164C205.126 122.795 195.107 120.848 182.347 122.603Z" fill="url(#paint1_linear_12_20)"/>
  <path fill-rule="evenodd" clip-rule="evenodd" d="M142.91 160.745C148.095 140.771 164.317 125.082 182.347 122.603C195.107 120.848 205.126 122.795 221.264 130.164C241.301 139.314 245.402 139.352 264.369 130.565C270.189 127.869 276.991 125.117 279.486 124.45C305.618 117.461 327.605 126.209 339.123 148.179C344.104 157.68 346 165.663 346 177.137C346 190.291 343.15 200.741 332.057 228.267C321.476 254.523 317.335 268.088 312.216 293.27C307.359 317.157 303.496 332.582 299.624 343.549C299.42 344.127 299.217 344.697 299.014 345.26C297.76 348.734 296.528 351.906 295.404 354.588C294.768 356.108 294.166 357.47 293.614 358.642C293.614 358.642 293.614 358.642 293.614 358.642C292.231 361.577 291.163 363.311 290.651 363.311C289.482 363.311 288.414 358.808 289.136 356.924C289.323 356.437 289.397 355.18 289.381 353.394C289.36 350.978 289.175 347.595 288.882 343.847C288.136 334.303 286.691 322.387 285.48 318.017C279.068 294.879 266.85 279.762 250.786 275.092C228.71 268.675 206.394 291.338 200.317 326.344C199.517 330.953 198.962 337.928 198.809 344.929C198.775 346.444 198.761 347.96 198.767 349.454C198.773 350.899 198.771 352.225 198.758 353.436C198.756 353.709 198.752 353.977 198.748 354.239C198.748 354.239 198.748 354.24 198.748 354.24C198.578 365.811 197.35 365.848 193.05 357.013C192.718 356.331 192.386 355.617 192.052 354.87C191.319 353.231 190.582 351.436 189.842 349.491C189.842 349.49 189.842 349.49 189.842 349.49C189.488 348.561 189.134 347.597 188.779 346.6C184.396 334.279 179.927 316.805 175.685 295.285C173.936 286.417 171.605 275.532 170.506 271.098C168.29 262.169 160.157 239.231 154.781 226.755C141.684 196.36 138.402 178.113 142.91 160.745ZM160.8 273.506C161.839 277.699 164.133 288.39 165.873 297.22C171.519 325.859 177.744 348.414 184.058 361.389C185.231 363.799 186.571 366.406 187.989 368.297L187.992 368.3C188.503 368.982 190.167 371.2 193.038 372.438C194.809 373.202 197.379 373.73 200.236 372.885C202.994 372.069 204.749 370.348 205.719 369.066C207.381 366.869 207.884 364.459 208.067 363.539C208.324 362.25 208.466 360.87 208.556 359.563C208.739 356.925 208.784 353.49 208.767 349.414V349.413C208.734 341.355 209.332 332.881 210.17 328.055L210.17 328.055C212.941 312.089 219.307 299.685 226.677 292.201C233.973 284.791 241.436 282.788 247.994 284.695C259.405 288.012 269.917 299.302 275.843 320.687L275.843 320.688C276.586 323.37 277.714 331.501 278.522 340.107C278.91 344.229 279.194 348.129 279.317 351.103C279.379 352.605 279.395 353.744 279.376 354.503C279.375 354.567 279.373 354.626 279.371 354.678C278.923 356.392 278.882 357.948 278.907 358.961C278.942 360.409 279.148 361.842 279.454 363.132C279.741 364.34 280.233 365.928 281.097 367.469C281.519 368.221 282.273 369.405 283.498 370.518C284.708 371.616 287.145 373.311 290.651 373.311C293.73 373.311 295.869 371.947 296.693 371.36C297.67 370.665 298.356 369.933 298.741 369.49C299.53 368.584 300.141 367.629 300.551 366.944C301.423 365.489 302.32 363.674 303.182 361.775C304.944 357.896 307.01 352.669 309.054 346.878C313.17 335.219 317.143 319.224 322.015 295.262C327.002 270.734 330.956 257.752 341.332 232.005C352.452 204.412 356 192.39 356 177.137C356 164.161 353.764 154.568 347.979 143.536C341.216 130.634 331.105 121.186 318.482 116.163C305.927 111.168 291.648 110.845 276.902 114.789L276.902 114.789C273.477 115.705 265.965 118.805 260.166 121.491L260.165 121.492C250.501 125.969 246.661 127.122 243.311 127.091C239.849 127.059 235.682 125.754 225.418 121.068L225.418 121.068C208.183 113.198 196.206 110.603 180.985 112.696C158.294 115.816 139.26 135.009 133.231 158.232L133.231 158.232C127.859 178.93 132.269 199.781 145.597 230.712C150.848 242.898 158.761 265.29 160.799 273.505M279.8 353.342L279.8 353.342ZM188.511 359.221C188.511 359.221 188.511 359.222 188.511 359.221ZM283.311 356.799C283.31 356.8 283.316 356.791 283.328 356.773C283.318 356.789 283.312 356.798 283.311 356.799ZM298.48 360.488C298.477 360.494 298.475 360.5 298.473 360.506C298.475 360.5 298.477 360.494 298.48 360.488ZM188.511 359.221C188.492 359.384 188.476 359.496 188.464 359.566ZM188.464 359.566C188.459 359.597 188.455 359.62 188.452 359.634C188.424 359.778 188.42 359.738 188.464 359.566Z" fill="#D9D9D9"/>
  <defs>
    <linearGradient id="paint0_linear_12_20" x1="243" y1="0" x2="243" y2="486" gradientUnits="userSpaceOnUse">
      <stop offset="0.485" stop-color="#162D3F"/>
      <stop offset="1" stop-color="#0D1D28"/>
    </linearGradient>
    <linearGradient id="paint1_linear_12_20" x1="243.5" y1="122" x2="243.5" y2="363.315" gradientUnits="userSpaceOnUse">
      <stop offset="0.44" stop-color="#15C4BF"/>
      <stop offset="1" stop-color="#0F9995"/>
    </linearGradient>
  </defs>
</svg>
