<svg width="486" height="486" viewBox="0 0 486 486" fill="none"
  xmlns="http://www.w3.org/2000/svg">
  <g clip-path="url(#clip0_1_3)">
    <circle cx="243" cy="243" r="243" fill="url(#paint0_linear_1_3)"/>
    <path d="M353 240H433" stroke="white" stroke-width="14" stroke-linecap="round"/>
    <path d="M54 240H134" stroke="white" stroke-width="14" stroke-linecap="round"/>
    <path d="M184.508 361.17C185.682 363.584 187.003 366.149 188.389 367.997C188.891 368.666 190.489 370.795 193.236 371.979C194.926 372.708 197.374 373.21 200.095 372.405C202.721 371.629 204.394 369.989 205.32 368.764C206.909 366.663 207.396 364.35 207.577 363.442C207.828 362.182 207.967 360.826 208.058 359.529C208.239 356.91 208.284 353.491 208.267 349.416V349.415C208.234 341.34 208.832 332.835 209.677 327.97L209.677 327.969C212.462 311.926 218.865 299.422 226.321 291.85C233.707 284.349 241.351 282.243 248.134 284.214L161.285 273.386C162.328 277.591 164.623 288.291 166.364 297.123C172.009 325.759 178.224 348.258 184.508 361.17ZM184.508 361.17L189.041 358.964M184.508 361.17L189.041 358.964M189.041 358.964C189.061 358.759 189.082 358.51 189.103 358.213C189.233 356.344 189.284 353.525 189.267 349.493L200.054 349.449C200.573 350.68 201.086 351.816 201.592 352.856L201.592 352.856C202.159 354.021 202.622 354.924 202.999 355.606C203.401 356.333 203.589 356.597 203.589 356.597L203.588 356.596C203.578 356.581 203.41 356.357 203.086 356.047C202.801 355.775 202.025 355.078 200.759 354.532C200.31 354.339 199.78 354.158 199.186 354.026C199.186 354.026 199.186 354.026 199.186 354.026C199.045 353.995 198.901 353.967 198.752 353.941C198.751 354.042 198.75 354.141 198.748 354.239C198.748 354.24 198.748 354.24 198.748 354.24C198.578 365.811 197.35 365.848 193.05 357.013M189.041 358.964C189.005 359.33 188.973 359.557 188.954 359.672M188.954 359.672C188.907 359.848 188.912 359.886 188.943 359.732C188.946 359.717 188.949 359.697 188.954 359.672ZM188.954 359.672C188.997 359.508 189.087 359.223 189.245 358.864L193.05 357.013M193.05 357.013C192.787 356.473 192.524 355.913 192.26 355.332C191.277 355.992 190.593 356.739 190.166 357.303C189.731 357.878 189.438 358.426 189.245 358.864L193.05 357.013ZM133.715 158.358L133.715 158.357C139.701 135.297 158.595 116.279 181.053 113.191C196.151 111.115 208.03 113.677 225.21 121.522L225.21 121.522C235.462 126.204 239.723 127.558 243.306 127.591C246.784 127.624 250.72 126.418 260.375 121.945L260.376 121.945C266.176 119.258 273.653 116.176 277.031 115.272L277.031 115.272C291.694 111.351 305.86 111.68 318.297 116.628C330.799 121.603 340.823 130.962 347.536 143.768L133.715 158.358ZM133.715 158.358C128.386 178.889 132.74 199.61 146.056 230.515M133.715 158.358L146.056 230.515M276.325 320.554L276.325 320.554C270.375 299.08 259.777 287.6 248.134 284.214L276.325 320.554ZM276.325 320.554C277.082 323.286 278.212 331.462 279.02 340.06M276.325 320.554L279.02 340.06M146.056 230.515C151.313 242.715 159.238 265.134 161.285 273.384L146.056 230.515ZM279.02 340.06C279.408 344.187 279.693 348.097 279.816 351.082M279.02 340.06L279.816 351.082M279.816 351.082C279.879 352.589 279.895 353.74 279.876 354.515M279.816 351.082L279.876 354.515M279.876 354.515C279.874 354.603 279.872 354.682 279.869 354.751M279.876 354.515L279.869 354.751M279.869 354.751C279.424 356.422 279.382 357.948 279.406 358.949C279.441 360.359 279.642 361.757 279.941 363.016C280.221 364.198 280.7 365.738 281.533 367.224C281.94 367.951 282.663 369.084 283.834 370.147C284.991 371.198 287.313 372.811 290.651 372.811C293.58 372.811 295.616 371.513 296.403 370.953C297.336 370.289 297.992 369.588 298.364 369.162C299.125 368.288 299.718 367.362 300.122 366.687C300.98 365.256 301.867 363.461 302.727 361.569C304.481 357.706 306.541 352.494 308.582 346.712C312.686 335.087 316.654 319.121 321.525 295.162C326.519 270.601 330.482 257.591 340.869 231.818C351.987 204.228 355.5 192.285 355.5 177.137C355.5 164.236 353.281 154.724 347.537 143.768L279.869 354.751ZM283.73 357.072C283.729 357.072 283.734 357.065 283.743 357.052C283.734 357.065 283.73 357.072 283.73 357.072Z" fill="url(#paint1_linear_1_3)" stroke="white" stroke-width="19"/>
    <line x1="243" y1="47" x2="243" y2="83" stroke="white" stroke-width="14" stroke-linecap="round"/>
    <line x1="243" y1="395" x2="243" y2="419" stroke="white" stroke-width="14" stroke-linecap="round"/>
  </g>
  <defs>
    <linearGradient id="paint0_linear_1_3" x1="243" y1="0" x2="243" y2="486" gradientUnits="userSpaceOnUse">
      <stop offset="0.485" stop-color="#162D3F"/>
      <stop offset="1" stop-color="#0D1D28"/>
    </linearGradient>
    <linearGradient id="paint1_linear_1_3" x1="243.5" y1="122" x2="243.5" y2="363.315" gradientUnits="userSpaceOnUse">
      <stop offset="0.44" stop-color="#15C4BF"/>
      <stop offset="1" stop-color="#0F9995"/>
    </linearGradient>
    <clipPath id="clip0_1_3">
      <rect width="486" height="486" fill="white"/>
    </clipPath>
  </defs>
</svg>
