<svg width="486" height="486" viewBox="0 0 486 486" fill="none"
  xmlns="http://www.w3.org/2000/svg">
  <path d="M486 243C486 377.205 377.205 486 243 486C108.795 486 0 377.205 0 243C0 108.795 108.795 0 243 0C377.205 0 486 108.795 486 243Z" fill="url(#paint0_linear_12_20)"/>
  <path fill-rule="evenodd" clip-rule="evenodd" d="M182.347 122.603C164.317 125.082 148.095 140.771 142.91 160.745C138.402 178.113 141.684 196.36 154.781 226.755C160.156 239.231 168.29 262.169 170.506 271.098C171.605 275.532 173.936 286.417 175.685 295.285C181.317 323.857 187.349 345.298 193.05 357.013C197.877 366.932 198.833 365.669 198.767 349.454C198.733 341.057 199.344 331.951 200.317 326.344C206.394 291.338 228.71 268.675 250.786 275.092C266.85 279.762 279.068 294.879 285.48 318.017C287.519 325.373 290.219 354.103 289.136 356.924C288.414 358.808 289.482 363.311 290.651 363.311C291.786 363.311 295.661 354.777 299.624 343.55C303.496 332.582 307.359 317.157 312.216 293.27C317.335 268.088 321.476 254.523 332.057 228.267C343.15 200.741 346 190.291 346 177.137C346 165.663 344.104 157.68 339.123 148.179C327.605 126.209 305.618 117.461 279.486 124.45C276.991 125.117 270.189 127.869 264.369 130.565C245.402 139.352 241.301 139.314 221.264 130.164C205.126 122.795 195.107 120.848 182.347 122.603Z" fill="url(#paint1_linear_12_20)" stroke="url(#paint1_linear_12_20)" stroke-width="20"/>
  <defs>
    <linearGradient id="paint0_linear_12_20" x1="243" y1="0" x2="243" y2="486" gradientUnits="userSpaceOnUse">
      <stop offset="0.485" stop-color="#162D3F"/>
      <stop offset="1" stop-color="#0D1D28"/>
    </linearGradient>
    <linearGradient id="paint1_linear_12_20" x1="243.5" y1="122" x2="243.5" y2="363.315" gradientUnits="userSpaceOnUse">
      <stop offset="0.44" stop-color="#15C4BF"/>
      <stop offset="1" stop-color="#0F9995"/>
    </linearGradient>
  </defs>
</svg>
